<?xml version="1.0" standalone="no"?>
<!DOCTYPE svg PUBLIC "-//W3C//DTD SVG 20010904//EN"
 "http://www.w3.org/TR/2001/REC-SVG-20010904/DTD/svg10.dtd">
<svg version="1.0" xmlns="http://www.w3.org/2000/svg"
 width="999.000000pt" height="999.000000pt" viewBox="0 0 999.000000 999.000000"
 preserveAspectRatio="xMidYMid meet">
<metadata>
Created by potrace 1.11, written by Peter Selinger 2001-2013
</metadata>
<g transform="translate(0.000000,999.000000) scale(0.100000,-0.100000)"
fill="#000000" stroke="none">
<path d="M4815 7799 c-579 -68 -1019 -503 -1095 -1082 -7 -56 -10 -617 -8
-1777 l4 -1695 26 -105 c155 -620 640 -1010 1259 -1010 324 0 600 121 854 375
172 172 304 378 388 605 71 192 67 71 67 1882 0 1842 5 1708 -79 1918 -79 197
-190 358 -354 517 -197 190 -423 309 -676 357 -103 20 -287 27 -386 15z"/>
<path d="M8083 7800 c-565 -71 -1070 -525 -1189 -1070 -18 -81 -19 -163 -19
-1785 l0 -1700 27 -98 c54 -195 155 -370 308 -530 208 -219 514 -390 830 -463
66 -15 154 -18 763 -21 l687 -4 -3 2283 -3 2283 -21 85 c-119 475 -438 820
-893 969 -144 47 -348 68 -487 51z"/>
<path d="M545 7777 c-3 -7 -4 -1021 -2 -2253 3 -2053 5 -2246 20 -2321 59
-287 178 -505 383 -702 485 -468 1163 -494 1709 -66 263 206 433 473 495 775
20 98 20 124 18 1802 l-3 1703 -28 89 c-59 190 -151 346 -290 492 -204 215
-478 377 -776 457 l-116 32 -703 3 c-582 2 -703 1 -707 -11z"/>
</g>
</svg>
