<?xml version="1.0" standalone="no"?>
<!DOCTYPE svg PUBLIC "-//W3C//DTD SVG 20010904//EN"
 "http://www.w3.org/TR/2001/REC-SVG-20010904/DTD/svg10.dtd">
<svg version="1.0" xmlns="http://www.w3.org/2000/svg"
 width="1500.000000pt" height="1500.000000pt" viewBox="0 0 1500.000000 1500.000000"
 preserveAspectRatio="xMidYMid meet">
<metadata>
Created by potrace 1.11, written by Peter Selinger 2001-2013
</metadata>
<g transform="translate(0.000000,1500.000000) scale(0.100000,-0.100000)"
fill="#000000" stroke="none">
<path d="M6340 14909 c-2030 -72 -3334 -428 -4258 -1161 -166 -132 -452 -418
-585 -587 -698 -880 -1084 -2113 -1232 -3926 -45 -552 -50 -752 -50 -1830 1
-1070 8 -1350 50 -1955 112 -1579 372 -2638 842 -3418 676 -1125 1828 -1688
3852 -1882 712 -68 1342 -90 2491 -85 1374 6 2188 52 3020 171 1418 202 2403
637 3026 1335 763 856 1132 2128 1239 4279 48 962 48 2493 0 3400 -64 1197
-196 2042 -433 2757 -208 628 -480 1097 -866 1492 -293 299 -581 503 -991 702
-905 438 -2139 651 -4115 709 -391 11 -1665 11 -1990 -1z m1521 -4663 c546
-127 997 -571 1147 -1131 l27 -100 3 -1809 c3 -1990 6 -1882 -58 -2077 -137
-416 -457 -808 -806 -986 -213 -109 -337 -138 -589 -138 -201 1 -321 20 -484
77 -473 165 -823 593 -911 1114 -20 117 -20 152 -17 2014 l3 1895 22 90 c68
276 172 476 344 659 214 229 517 379 848 420 19 2 109 3 200 1 131 -3 187 -9
271 -29z m3374 5 c371 -84 693 -302 897 -605 109 -164 175 -317 219 -516 l24
-105 3 -2513 2 -2513 -772 4 c-749 3 -776 4 -858 25 -571 142 -1039 526 -1199
984 -71 203 -66 58 -66 2108 0 1702 1 1852 17 1936 53 276 178 517 381 731
250 264 578 433 942 487 74 11 323 -3 410 -23z m-6863 -9 c680 -154 1214 -669
1279 -1236 7 -61 9 -690 7 -1921 -4 -1827 -4 -1830 -25 -1915 -28 -112 -66
-217 -114 -313 -202 -408 -606 -719 -1073 -829 -137 -32 -392 -32 -535 0 -129
29 -219 61 -336 119 -425 212 -695 571 -792 1050 -16 82 -18 247 -20 2581 l-3
2493 757 -4 c735 -3 761 -4 855 -25z"/>
</g>
</svg>
