<?xml version="1.0" standalone="no"?>
<!DOCTYPE svg PUBLIC "-//W3C//DTD SVG 20010904//EN"
 "http://www.w3.org/TR/2001/REC-SVG-20010904/DTD/svg10.dtd">
<svg version="1.0" xmlns="http://www.w3.org/2000/svg"
 width="500.000000pt" height="500.000000pt" viewBox="0 0 500.000000 500.000000"
 preserveAspectRatio="xMidYMid meet">
<metadata>
Created by potrace 1.11, written by Peter Selinger 2001-2013
</metadata>
<g transform="translate(0.000000,500.000000) scale(0.100000,-0.100000)"
fill="#000000" stroke="none">
<path d="M350 4976 c-175 -47 -303 -191 -330 -371 -7 -48 -10 -718 -8 -2150
l3 -2080 22 -57 c28 -73 46 -102 102 -162 55 -58 105 -91 180 -120 l56 -21
2085 -3 c1489 -2 2104 1 2152 8 179 30 327 167 367 341 7 29 11 765 11 2146 0
2030 -1 2103 -19 2162 -26 83 -60 137 -123 198 -61 57 -107 83 -187 107 -50
14 -252 16 -2160 15 -1629 0 -2116 -3 -2151 -13z m1406 -2179 c99 -210 184
-381 188 -380 5 1 90 173 190 382 l181 381 258 0 257 0 0 -750 0 -750 -245 0
-246 0 3 299 c2 165 0 297 -3 295 -4 -2 -78 -136 -165 -299 l-159 -294 -70 -1
-70 0 -160 297 -160 296 -5 -294 -5 -294 -242 -3 -243 -2 0 750 0 750 258 0
257 -1 181 -382z m1938 3 c206 -52 370 -211 421 -407 20 -75 19 -229 -1 -307
-48 -186 -206 -341 -409 -402 -83 -25 -267 -25 -349 0 -191 57 -340 195 -396
366 -47 141 -34 326 32 460 40 82 150 193 235 238 135 71 315 91 467 52z"/>
<path d="M3446 2455 c-46 -16 -109 -75 -131 -122 -23 -49 -21 -142 4 -191 44
-86 145 -141 236 -129 122 17 205 110 205 229 0 157 -162 268 -314 213z"/>
</g>
</svg>
