<?xml version="1.0" standalone="no"?>
<!DOCTYPE svg PUBLIC "-//W3C//DTD SVG 20010904//EN"
 "http://www.w3.org/TR/2001/REC-SVG-20010904/DTD/svg10.dtd">
<svg version="1.0" xmlns="http://www.w3.org/2000/svg"
 width="999.000000pt" height="999.000000pt" viewBox="0 0 999.000000 999.000000"
 preserveAspectRatio="xMidYMid meet">
<metadata>
Created by potrace 1.11, written by Peter Selinger 2001-2013
</metadata>
<g transform="translate(0.000000,999.000000) scale(0.100000,-0.100000)"
fill="#000000" stroke="none">
<path d="M4315 9980 c-1304 -46 -2114 -237 -2714 -641 -158 -106 -236 -170
-369 -301 -783 -773 -1096 -2103 -1043 -4431 11 -510 20 -700 46 -1022 134
-1648 563 -2502 1480 -2951 527 -257 1176 -384 2225 -435 302 -14 1519 -14
1845 0 1635 73 2508 327 3081 896 178 176 296 340 420 579 362 700 504 1669
504 3446 0 1747 -136 2685 -492 3383 -114 225 -251 409 -434 588 -574 557
-1468 811 -3094 879 -349 14 -1173 20 -1455 10z m753 -2841 c380 -41 728 -319
870 -694 63 -166 61 -120 62 -1477 0 -1026 -2 -1249 -14 -1310 -20 -103 -69
-231 -128 -334 -164 -290 -404 -485 -675 -550 -100 -24 -302 -22 -420 4 -322
72 -582 299 -699 610 -72 194 -68 95 -72 1517 -3 1334 -2 1400 39 1546 97 350
389 616 744 678 122 22 172 24 293 10z m2398 -24 c284 -72 524 -267 654 -530
58 -118 86 -214 100 -345 6 -59 10 -738 10 -1793 l0 -1698 -537 4 c-581 4
-580 4 -743 62 -360 129 -632 400 -722 720 l-23 80 -3 1240 c-2 837 0 1277 8
1353 23 242 113 428 297 615 94 94 193 164 316 222 218 103 423 126 643 70z
m-4610 0 c331 -63 658 -289 808 -558 19 -34 50 -105 68 -157 l33 -95 0 -1350
0 -1350 -28 -88 c-84 -270 -259 -482 -520 -631 -103 -58 -268 -112 -390 -126
-386 -45 -798 189 -977 555 -58 118 -86 215 -100 345 -6 59 -10 734 -10 1783
l0 1687 519 0 c420 0 534 -3 597 -15z"/>
</g>
</svg>
