<?xml version="1.0" standalone="no"?>
<!DOCTYPE svg PUBLIC "-//W3C//DTD SVG 20010904//EN"
 "http://www.w3.org/TR/2001/REC-SVG-20010904/DTD/svg10.dtd">
<svg version="1.0" xmlns="http://www.w3.org/2000/svg"
 width="999.000000pt" height="999.000000pt" viewBox="0 0 999.000000 999.000000"
 preserveAspectRatio="xMidYMid meet">
<metadata>
Created by potrace 1.11, written by Peter Selinger 2001-2013
</metadata>
<g transform="translate(0.000000,999.000000) scale(0.100000,-0.100000)"
fill="#000000" stroke="none">
<path d="M4700 7780 c-438 -93 -781 -395 -920 -809 -69 -206 -64 -46 -67
-1928 -4 -1852 -5 -1789 52 -1988 34 -120 129 -312 204 -413 244 -329 612
-512 1032 -512 325 0 600 121 854 375 197 197 337 430 423 703 l27 87 3 1663
c3 1878 8 1740 -77 1952 -79 197 -190 358 -354 517 -198 191 -423 309 -678
358 -116 22 -387 19 -499 -5z"/>
<path d="M7985 7784 c-276 -59 -547 -213 -752 -427 -174 -183 -288 -392 -339
-627 -18 -81 -19 -163 -19 -1785 l0 -1700 27 -100 c53 -192 155 -368 305 -525
211 -222 516 -393 833 -466 66 -15 154 -18 763 -21 l687 -4 -3 2283 c-3 2518
2 2301 -63 2503 -142 434 -529 773 -992 870 -96 20 -351 19 -447 -1z"/>
<path d="M550 5542 c0 -2468 -4 -2317 60 -2515 59 -184 154 -340 299 -491 350
-363 839 -494 1294 -345 119 39 252 104 367 180 119 79 315 272 389 384 104
159 176 338 201 504 7 43 10 656 8 1761 l-3 1695 -28 90 c-134 441 -548 809
-1066 948 l-116 32 -702 3 -703 3 0 -2249z"/>
</g>
</svg>
